<?xml version="1.0" encoding="utf-8"?>
<!-- Generator: Adobe Illustrator 16.0.0, SVG Export Plug-In . SVG Version: 6.00 Build 0)  -->
<!DOCTYPE svg PUBLIC "-//W3C//DTD SVG 1.1//EN" "http://www.w3.org/Graphics/SVG/1.1/DTD/svg11.dtd">
<svg version="1.1" xmlns="http://www.w3.org/2000/svg" xmlns:xlink="http://www.w3.org/1999/xlink" x="0px" y="0px" width="1040px"
	 height="1052px" viewBox="0 0 1040 1052" enable-background="new 0 0 1040 1052" xml:space="preserve">
<g id="Layer_1" display="none">
	
		<image display="inline" overflow="visible" width="1038" height="1052" xlink:href="D60B24C1.jpg"  transform="matrix(1 0 0 1 734.0215 -7)">
	</image>
</g>
<g id="Layer_2">
	<polygon fill="#F26A26" points="448.707,10.392 637.267,363.815 1031.661,293.697 753.804,582.241 942.364,935.667 582.08,760.575 
		304.223,1049.121 359.407,652.36 -0.878,477.27 393.517,407.149 	"/>
</g>
<g id="Layer_4">
	<path fill="#8F1A1D" d="M506.294,629.754c-3.22,0.066-15.48,4.662-13.798,13.424c1.683,8.76-4.808,16.934-8.654,17.414
		c-3.847,0.48-10.097,16.988-4.327,21.477c5.77,4.486,33.174,22.275,32.694,29.486c-0.481,7.213,9.135,23.559,12.98,30.291
		c3.848,6.73,15.387,17.309,21.637,21.635c6.25,4.328,26.051,10.098,30.093,15.385c4.043,5.289,13.979,13.463,19.108,14.424
		c5.128,0.963,14.263,13.463,19.07,19.713c4.809,6.25,23.56,13.463,29.81,14.904c6.25,1.443,11.541,6.25,14.905,9.135
		c3.365,2.885,14.903,5.289,17.788,2.885c2.885-2.402,13.943-2.885,19.713-4.807c5.77-1.924,32.521,1.523,27.559-11.178
		C719.911,811.24,506.294,629.754,506.294,629.754z"/>
	<path fill="#E54D28" d="M546.104,634.148c0,0,13.462,0,16.347,0s18.751-2.164,18.751-2.164s18.03,8.174,20.434,9.135
		c2.404,0.961,48.561,18.27,52.646,21.395c4.087,3.127,21.396,13.223,25.242,16.107c3.846,2.885,17.549,22.357,18.51,26.203
		c0.962,3.846,7.693,26.443,8.174,29.328s3.606,9.855,7.212,12.5s17.789,16.828,19.953,19.232c2.163,2.404,5.529,15.865,5.77,19.473
		c0.076,1.162,0.757,3.176,1.639,5.371c0.611-3.348,1.375-6.635,2.207-8.979c2.645-7.451-2.885-14.182-6.49-17.066
		c-3.606-2.885-20.193-21.156-23.559-25.723c-3.366-4.568-10.481-29.285-10.578-35.098c-0.24-14.424-12.02-23.559-15.625-26.443
		c-3.606-2.885-31.012-20.434-33.415-21.637c-2.404-1.201-20.193-7.211-23.078-7.691c-2.885-0.482-23.8-11.059-29.088-12.021
		c-5.289-0.961-20.674-6.73-20.674-6.73s-8.654-1.779-16.828,0c-8.169,1.779-24.503-2.398-30.761-4.805l0.792,6.158L546.104,634.148
		z"/>
	<g>
		<path fill="none" d="M513.237,686.273c0.095,0.084,0.191,0.17,0.288,0.258C513.429,686.443,513.333,686.357,513.237,686.273z"/>
		<path fill="none" d="M512.163,685.313c0.104,0.092,0.208,0.184,0.314,0.279C512.369,685.496,512.267,685.404,512.163,685.313z"/>
		<path fill="none" d="M515.3,688.139c0.094,0.088,0.188,0.174,0.283,0.26C515.488,688.311,515.394,688.227,515.3,688.139z"/>
		<path fill="none" d="M518.507,691.125c0.073,0.068,0.146,0.139,0.219,0.207C518.653,691.264,518.58,691.193,518.507,691.125z"/>
		<path fill="none" d="M516.451,689.197c0.077,0.072,0.154,0.143,0.231,0.215C516.605,689.34,516.529,689.27,516.451,689.197z"/>
		<path fill="none" d="M519.572,692.148c0.034,0.033,0.067,0.066,0.102,0.1C519.639,692.215,519.605,692.182,519.572,692.148z"/>
		<path fill="none" d="M517.452,690.129c0.063,0.059,0.127,0.119,0.191,0.178C517.579,690.248,517.515,690.188,517.452,690.129z"/>
		<path fill="none" d="M508.659,682.227c0.035,0.031,0.069,0.061,0.108,0.094C508.727,682.287,508.695,682.258,508.659,682.227z"/>
		<path fill="none" d="M524.232,650.508c-0.685,0.619-1.399,1.254-2.168,1.91C522.85,651.971,523.569,651.318,524.232,650.508z"/>
		<path fill="none" d="M509.144,682.648c0.058,0.051,0.122,0.107,0.185,0.162C509.265,682.754,509.203,682.701,509.144,682.648z"/>
		<path fill="none" d="M511.375,684.611c0.078,0.07,0.162,0.145,0.242,0.215C511.536,684.756,511.454,684.682,511.375,684.611z"/>
		<path fill="none" d="M509.746,683.176c0.043,0.037,0.083,0.072,0.127,0.111C509.827,683.246,509.789,683.215,509.746,683.176z"/>
		<path fill="none" d="M510.47,683.813c0.081,0.07,0.164,0.145,0.248,0.219C510.633,683.955,510.551,683.883,510.47,683.813z"/>
		<path fill="none" d="M514.272,687.205c0.069,0.063,0.139,0.125,0.208,0.189C514.411,687.33,514.342,687.268,514.272,687.205z"/>
		<path fill="none" d="M527.113,708.67c-0.24,1.684,8.895,17.789,9.375,19.473c0.481,1.684,8.174,8.174,8.896,9.375
			c0.721,1.203,7.452,9.375,9.615,11.059c2.164,1.684,19.953,11.779,22.357,13.463c2.403,1.682,20.434,13.221,23.799,14.424
			c3.365,1.201,16.587,8.895,16.587,8.895s13.703,18.029,17.068,19.953c3.365,1.922,20.674,13.461,23.318,13.461
			s15.145,9.135,18.751,9.135c3.605,0,22.838-0.721,26.924-2.404c4.087-1.682,16.348-5.527,18.271-4.807
			c0.341,0.127,1.001,0.535,1.792,1.115c1.61-3.73,1.92-8.219-3.955-10.57c-18.431-7.371-38.462,3.205-41.188,5.129
			c-2.725,1.922-4.327-0.322-4.327-3.045c0-2.725-2.725-39.586-14.904-49.682c-2.544-2.109-42.47,3.846-42.631-17.309
			c-0.07-9.289-32.213,18.109-29.648-26.283c-25.001,3.104-35.74-0.803-31.092-8.654c4.648-7.854,4.02-9.445,0.321-9.297
			c-8.014,0.322-28.356-12.02-23.55-17.949c4.809-5.928,15.857-8.012,16.338-10.416s1.604-4.969-0.961-5.609
			c-2.565-0.641-8.654-1.604-8.654-1.604c-4.008,0.961-12.662,5.609-13.463,9.777c-0.694,3.613-3.558,12.537-4.095,18.389
			c-0.007-0.008-0.015-0.016-0.021-0.023c0.833,0.914,1.38,1.621,1.472,1.986C523.988,698.574,527.354,706.988,527.113,708.67z"/>
		<path fill="none" d="M520.403,692.971c0.055,0.053,0.109,0.107,0.162,0.16C520.512,693.078,520.458,693.023,520.403,692.971z"/>
		<path fill="none" d="M521.276,693.857c0.046,0.047,0.09,0.094,0.134,0.139C521.366,693.951,521.322,693.904,521.276,693.857z"/>
		<path fill="none" d="M724.945,822.646c0.014,0.012,0.028,0.023,0.043,0.037C724.974,822.67,724.959,822.658,724.945,822.646z"/>
		<path fill="#CB4C27" d="M740.781,790.729c-0.882-2.195-1.563-4.209-1.639-5.371c-0.24-3.607-3.606-17.068-5.77-19.473
			c-2.164-2.404-16.348-16.588-19.953-19.232s-6.731-9.615-7.212-12.5s-7.212-25.482-8.174-29.328
			c-0.961-3.846-14.664-23.318-18.51-26.203c-3.847-2.885-21.155-12.98-25.242-16.107c-4.086-3.125-50.242-20.434-52.646-21.395
			c-2.403-0.961-20.434-9.135-20.434-9.135s-15.866,2.164-18.751,2.164s-16.347,0-16.347,0l-12.42-3.455l-0.792-6.158
			c-0.002,0-0.006-0.002-0.01-0.004c-0.525-0.201-1.172-0.438-1.898-0.682c4.537,9.539,5.842,15.225-6.752,26.658
			c-0.663,0.811-1.383,1.463-2.168,1.91c-7.365,6.297-15.343,28.127-13.681,29.568c0.07,0.061,0.167,0.146,0.276,0.24
			c0.036,0.031,0.067,0.061,0.108,0.094c0.112,0.098,0.235,0.205,0.376,0.328c0.06,0.053,0.121,0.105,0.185,0.162
			c0.13,0.113,0.269,0.236,0.417,0.365c0.043,0.039,0.082,0.07,0.127,0.111c0.186,0.164,0.387,0.34,0.597,0.525
			c0.082,0.07,0.164,0.143,0.248,0.219c0.211,0.186,0.428,0.377,0.657,0.58c0.079,0.07,0.161,0.145,0.242,0.215
			c0.178,0.158,0.359,0.32,0.545,0.486c0.104,0.092,0.207,0.184,0.314,0.279c0.248,0.221,0.502,0.449,0.761,0.682
			c0.096,0.084,0.191,0.17,0.288,0.258c0.246,0.221,0.495,0.445,0.747,0.674c0.07,0.063,0.139,0.125,0.208,0.189
			c0.271,0.246,0.544,0.494,0.82,0.744c0.094,0.088,0.188,0.172,0.283,0.26c0.29,0.266,0.579,0.531,0.868,0.799
			c0.078,0.072,0.154,0.143,0.231,0.215c0.258,0.238,0.514,0.479,0.769,0.717c0.063,0.059,0.127,0.119,0.191,0.178
			c0.293,0.275,0.581,0.547,0.864,0.818c0.073,0.068,0.146,0.139,0.219,0.207c0.289,0.277,0.572,0.551,0.846,0.816
			c0.034,0.033,0.067,0.066,0.102,0.1c0.251,0.246,0.494,0.486,0.729,0.723c0.055,0.053,0.109,0.107,0.162,0.16
			c0.25,0.25,0.486,0.492,0.712,0.727c0.046,0.047,0.09,0.094,0.134,0.139c0.223,0.232,0.434,0.457,0.626,0.668
			c0.007,0.008,0.015,0.016,0.021,0.023c0.537-5.852,3.4-14.775,4.095-18.389c0.801-4.168,9.455-8.816,13.463-9.777
			c0,0,6.089,0.963,8.654,1.604c2.564,0.641,1.441,3.205,0.961,5.609s-11.529,4.488-16.338,10.416
			c-4.807,5.93,15.536,18.271,23.55,17.949c3.698-0.148,4.327,1.443-0.321,9.297c-4.648,7.852,6.091,11.758,31.092,8.654
			c-2.564,44.393,29.578,16.994,29.648,26.283c0.161,21.154,40.087,15.199,42.631,17.309c12.18,10.096,14.904,46.957,14.904,49.682
			c0,2.723,1.603,4.967,4.327,3.045c2.726-1.924,22.757-12.5,41.188-5.129c5.875,2.352,5.565,6.84,3.955,10.57
			c0.341,0.248,0.703,0.527,1.079,0.836c0.014,0.012,0.028,0.023,0.043,0.037c0.371,0.305,0.749,0.629,1.125,0.975
			c14.189-3.395,13.27-16.734,13.27-20.992C739.383,800.148,739.932,795.381,740.781,790.729z"/>
		<path fill="#CB4C27" d="M510.718,684.031c0.21,0.186,0.428,0.377,0.657,0.58C511.146,684.408,510.929,684.217,510.718,684.031z"/>
		<path fill="#CB4C27" d="M518.726,691.332c0.289,0.277,0.572,0.551,0.846,0.816C519.298,691.883,519.014,691.609,518.726,691.332z"
			/>
		<path fill="#CB4C27" d="M509.873,683.287c0.185,0.162,0.389,0.342,0.597,0.525C510.259,683.627,510.059,683.451,509.873,683.287z"
			/>
		<path fill="#CB4C27" d="M508.767,682.32c0.11,0.096,0.238,0.207,0.376,0.328C509.002,682.525,508.879,682.418,508.767,682.32z"/>
		<path fill="#652211" d="M724.988,822.684c-0.015-0.014-0.029-0.025-0.043-0.037c-0.374-0.305-0.739-0.588-1.079-0.836
			c-0.791-0.58-1.451-0.988-1.792-1.115c-1.923-0.721-14.184,3.125-18.271,4.807c-4.086,1.684-23.318,2.404-26.924,2.404
			c-3.606,0-16.106-9.135-18.751-9.135s-19.953-11.539-23.318-13.461c-3.365-1.924-17.068-19.953-17.068-19.953
			s-13.222-7.693-16.587-8.895c-3.365-1.203-21.396-12.742-23.799-14.424c-2.404-1.684-20.193-11.779-22.357-13.463
			c-2.163-1.684-8.895-9.855-9.615-11.059c-0.722-1.201-8.414-7.691-8.896-9.375c-0.48-1.684-9.615-17.789-9.375-19.473
			c0.24-1.682-3.125-10.096-3.605-12.02c-0.092-0.365-0.639-1.072-1.472-1.986c-0.192-0.211-0.403-0.436-0.626-0.668
			c-0.044-0.045-0.088-0.092-0.134-0.139c-0.226-0.234-0.462-0.477-0.712-0.727c-0.053-0.053-0.107-0.107-0.162-0.16
			c-0.235-0.236-0.478-0.477-0.729-0.723c-0.035-0.033-0.068-0.066-0.102-0.1c-0.274-0.266-0.558-0.539-0.846-0.816
			c-0.072-0.068-0.146-0.139-0.219-0.207c-0.283-0.271-0.571-0.543-0.864-0.818c-0.064-0.059-0.128-0.119-0.191-0.178
			c-0.255-0.238-0.511-0.479-0.769-0.717c-0.077-0.072-0.154-0.143-0.231-0.215c-0.289-0.268-0.578-0.533-0.868-0.799
			c-0.094-0.086-0.189-0.172-0.283-0.26c-0.275-0.25-0.548-0.498-0.82-0.744c-0.07-0.064-0.139-0.127-0.208-0.189
			c-0.252-0.229-0.5-0.453-0.747-0.674c-0.097-0.088-0.193-0.174-0.288-0.258c-0.258-0.232-0.513-0.461-0.761-0.682
			c-0.106-0.096-0.209-0.188-0.314-0.279c-0.186-0.166-0.368-0.328-0.545-0.486c-0.081-0.07-0.165-0.145-0.242-0.215
			c-0.229-0.203-0.447-0.395-0.657-0.58c-0.084-0.074-0.167-0.148-0.248-0.219c-0.208-0.184-0.412-0.363-0.597-0.525
			c-0.044-0.039-0.083-0.074-0.127-0.111c-0.149-0.131-0.287-0.252-0.417-0.365c-0.063-0.055-0.127-0.111-0.185-0.162
			c-0.139-0.121-0.267-0.232-0.376-0.328c-0.039-0.033-0.073-0.063-0.108-0.094c-0.106-0.092-0.207-0.18-0.276-0.24
			c-1.662-1.441,5.268-24.76,13.681-29.568c0.769-0.656,1.483-1.291,2.168-1.91c12.594-11.434,11.289-17.119,6.752-26.658
			c-7.923-2.67-26.468-6.611-26.468,16.068c0,5.424-6.972,11.299-10.337,12.02c-3.366,0.721-4.087,3.846-4.808,9.135
			s0.962,15.865,12.741,20.434c3.114,1.207,14.424,12.5,18.27,17.789s4.327,11.779,5.529,15.867
			c1.202,4.086,10.577,19.711,13.462,23.799c2.885,4.086,16.107,14.664,19.473,17.309s24.039,13.941,26.924,14.904
			c2.885,0.961,7.934,8.414,10.578,10.096c2.644,1.684,15.145,3.607,17.309,6.49c2.163,2.885,14.423,24.281,40.626,33.416
			c3.028,1.055,17.309,4.809,19.713,7.934s9.135,3.125,13.222,1.441c4.087-1.682,10.817-0.961,12.741-1.201
			c1.923-0.24,22.179-4.838,25.481-5.529c0.232-0.049,0.449-0.107,0.674-0.162C725.737,823.313,725.358,822.986,724.988,822.684z"/>
		<path fill="#CB4C27" d="M508.383,681.986c0.069,0.061,0.17,0.148,0.276,0.24C508.55,682.133,508.454,682.047,508.383,681.986z"/>
		<path fill="#CB4C27" d="M509.329,682.811c0.13,0.113,0.268,0.234,0.417,0.365C509.597,683.047,509.458,682.924,509.329,682.811z"
			/>
		<path fill="#CB4C27" d="M726.113,823.658c-0.376-0.346-0.754-0.67-1.125-0.975C725.358,822.986,725.737,823.313,726.113,823.658z"
			/>
		<path fill="#CB4C27" d="M508.383,681.986c-1.662-1.441,6.316-23.271,13.681-29.568
			C513.651,657.227,506.721,680.545,508.383,681.986z"/>
		<path fill="#CB4C27" d="M516.683,689.412c0.258,0.238,0.514,0.479,0.769,0.717C517.197,689.891,516.94,689.65,516.683,689.412z"/>
		<path fill="#CB4C27" d="M520.564,693.131c0.25,0.25,0.486,0.492,0.712,0.727C521.051,693.623,520.814,693.381,520.564,693.131z"/>
		<path fill="#CB4C27" d="M515.583,688.398c0.29,0.266,0.579,0.531,0.868,0.799C516.162,688.93,515.873,688.664,515.583,688.398z"/>
		<path fill="#CB4C27" d="M517.643,690.307c0.293,0.275,0.581,0.547,0.864,0.818C518.224,690.854,517.936,690.582,517.643,690.307z"
			/>
		<path fill="#CB4C27" d="M519.673,692.248c0.251,0.246,0.495,0.486,0.729,0.723C520.167,692.734,519.925,692.494,519.673,692.248z"
			/>
		<path fill="#CB4C27" d="M512.477,685.592c0.248,0.221,0.502,0.449,0.761,0.682C512.979,686.041,512.724,685.813,512.477,685.592z"
			/>
		<path fill="#CB4C27" d="M511.617,684.826c0.178,0.158,0.36,0.32,0.545,0.486C511.976,685.146,511.795,684.984,511.617,684.826z"/>
		<path fill="#CB4C27" d="M514.48,687.395c0.271,0.246,0.544,0.494,0.82,0.744C515.025,687.889,514.752,687.641,514.48,687.395z"/>
		<path fill="#CB4C27" d="M724.945,822.646c-0.376-0.309-0.738-0.588-1.079-0.836l0,0
			C724.206,822.059,724.571,822.342,724.945,822.646z"/>
		<path fill="#CB4C27" d="M513.525,686.531c0.246,0.221,0.495,0.445,0.747,0.674C514.02,686.977,513.771,686.752,513.525,686.531z"
			/>
		<path fill="#CB4C27" d="M521.41,693.996c0.223,0.232,0.434,0.457,0.626,0.668C521.844,694.453,521.633,694.229,521.41,693.996z"/>
	</g>
	<path fill="#E54D28" d="M559.395,703.535c3.298,0.006,11.521,0.148,13.395,1.93c1.604,1.523,0.627,5.676,0.627,5.676
		s-7.999,12.916-4.634,16.602c3.366,3.686-12.179,3.205-12.179,3.205l-5.449-17.309L559.395,703.535z"/>
	<path fill="#E54D28" d="M585.649,722.854c0.842-1.082,4.207-3.605,7.572-3.004c3.366,0.6,3.366,2.645,3.486,5.047
		c0.12,2.404,3.125,16.99,9.015,22.318s-9.015,7.131-9.015,7.131l-14.904-8.414L585.649,722.854z"/>
	<path fill="#B43C25" d="M719.911,811.24c-18.431-7.371-38.462,3.205-41.188,5.129c-2.725,1.922-4.327-0.322-4.327-3.045
		c0-2.725-2.725-39.586-14.904-49.682c-2.544-2.109-42.47,3.846-42.631-17.309c-0.07-9.289-32.213,18.109-29.648-26.283
		c-25.001,3.104-35.74-0.803-31.092-8.654c4.648-7.854,4.02-9.445,0.321-9.297c-8.014,0.322-28.356-12.02-23.55-17.949
		c4.809-5.928,15.857-8.012,16.338-10.416s1.604-4.969-0.961-5.609c-2.565-0.641-8.654-1.604-8.654-1.604
		c-4.008,0.961-12.662,5.609-13.463,9.777c-0.694,3.613-3.558,12.537-4.095,18.389c0.821,0.902,1.358,1.6,1.45,1.963
		c0.48,1.924,3.846,10.338,3.605,12.02c-0.24,1.684,8.895,17.789,9.375,19.473c0.481,1.684,8.174,8.174,8.896,9.375
		c0.721,1.203,7.452,9.375,9.615,11.059c2.164,1.684,19.953,11.779,22.357,13.463c2.403,1.682,20.434,13.221,23.799,14.424
		c3.365,1.201,16.587,8.895,16.587,8.895s13.703,18.029,17.068,19.953c3.365,1.922,20.674,13.461,23.318,13.461
		s15.145,9.135,18.751,9.135c3.605,0,22.838-0.721,26.924-2.404c4.087-1.682,16.348-5.527,18.271-4.807
		c0.341,0.127,1.001,0.535,1.792,1.115C725.477,818.08,725.786,813.592,719.911,811.24z"/>
	<path fill="#B43C25" d="M555,643.283l4.647,6.09c0,0,29.81-1.441,38.944,1.443c1.865,0.588,4.006,2.404,6.09,4.006
		c2.083,1.604,15.866,8.977,18.911,10.098s36.22,20.514,36.22,20.514s-16.989-15.547-20.515-17.309
		c-3.524-1.764-29.799-15.4-34.296-17.469c-10.096-4.648-21.476-6.25-25.803-6.41C574.872,644.084,561.731,642.803,555,643.283z"/>
	<path fill="#B43C25" d="M710.135,771.494c0.161,1.924,2.244,9.936,4.167,10.098c1.923,0.16,19.393,1.602,19.393,1.602l3.846,14.424
		c0,0-1.922-16.988-1.763-18.109c0.16-1.121-15.226,0.16-15.226,0.16s-13.302-17.949-15.545-13.463L710.135,771.494z"/>
	<path fill="#652211" d="M594.451,682.068l32.988,28.207c0,0,43.912,24.52,44.713,27.725c0.802,3.205,1.924,10.578,1.924,10.578
		s9.407,10.969,10.257,7.051C688.019,738.641,643.84,691.203,594.451,682.068z"/>
	<path fill="#652211" d="M562.432,670.047c0,0,9.227,6.168,12.601,5.129c6.771-2.082-6.73-6.891-8.333-6.891
		C565.096,668.285,562.432,670.047,562.432,670.047z"/>
</g>
<g id="Layer_3">
	<path fill="#8F1A1D" d="M366.709,601.254c0,4.486,3.206,18.631,3.846,23.098c0.641,4.467,5.128,6.391,8.975,8.955
		s24.767,13.463,30.654,15.385c5.886,1.924,12.297,5.77,16.144,0s11.539-26.924,14.103-28.848c2.564-1.922,5.77-8.334,13.462-11.539
		c7.692-3.205,22.437-14.104,27.565-17.949s19.873-17.309,26.924-21.154c7.052-3.848,21.157-11.539,33.656-13.463
		c12.5-1.922,32.373-9.936,36.54-10.576c4.168-0.643,13.782-2.887,18.271-4.168c4.487-1.281,23.078-8.014,26.924-9.937
		c3.847-1.923,17.95-8.974,20.835-9.616c2.885-0.641,9.615-4.486,12.5-7.051s10.257-14.104,13.783-19.232
		c3.525-5.129,12.821-21.476,14.104-24.681c1.281-3.205,6.089-19.552,6.73-21.475s7.292-9.696,9.937-10.417
		s7.933-4.808,10.337-5.769c2.404-0.962,6.49-9.135,7.933-11.299s6.972-9.616,7.934-11.299c0.961-1.683,1.202-6.01,0-11.058
		s-7.212-24.04-7.934-27.405c-0.721-3.366-3.605-12.501-3.605-15.866c0-3.366-1.923-17.79-3.366-20.434
		c-1.441-2.645-14.442-46.587-31.381-54.185c-16.938-7.597-12.689,16.202-12.689,16.202l-31.173,108.418l-21.396,47.117
		l-54.811,39.185l-101.206,35.338l-56.974,50.725L366.709,601.254z"/>
	<path fill="#CB4C27" d="M665.121,296.511c-0.962-5.048-11.299-20.674-13.943-24.761c-2.281-3.525-5.741-19.85-6.65-24.274
		l-36.525-8.998c0,0-14.359-13.845-19.774-17.371c-5.414-3.526-16.701-1.923-21.188,0c-4.486,1.923-19.346,0-19.346,0
		s-7.258,3.205-8.219,3.526c-0.961,0.32-5.923,8.013-5.923,8.013l-11.038,9.616v21.796v27.565l3.498,18.613l17.309,9.914
		c0,0-10.257,5.449-11.539,6.731s-12.18,10.257-14.104,11.539c-1.923,1.282-14.103,14.424-16.383,16.988
		c-2.28,2.564-13.105,15.385-14.708,17.95c-1.603,2.565-5.449,11.219-5.449,11.219l-1.923,10.169c0,0-6.09,16.755-7.693,18.999
		s-7.372,18.911-8.654,24.598c-1.282,5.688-13.783,28.609-15.065,31.494s-16.026,20.514-21.155,25.001
		c-5.129,4.487-11.218,11.218-13.462,13.462c-2.244,2.245-14.103,16.668-19.552,21.796c-5.449,5.129-23.078,19.873-23.078,19.873
		l-8.216,7.482c11.611,6.764,29.462,14.824,49.565,15.598c2.03,0.078,3.873,0.381,5.557,0.863
		c17.67-14.979,47.662-37.102,51.497-39.891c5.289-3.846,43.752-13.942,48.319-14.904c4.567-0.961,48.079-15.866,53.849-18.029
		s32.213-14.423,34.857-18.27c2.645-3.846,6.25-12.981,10.337-15.866s12.501-9.375,14.424-12.5
		c1.923-3.125,12.26-31.011,14.664-36.78s9.375-19.232,15.386-23.559c6.01-4.327,6.971-20.914,7.933-29.809
		C669.688,355.408,666.082,301.56,665.121,296.511z"/>
	<path fill="#652211" d="M501.295,472.816c7.813-0.321,21.636-1.523,32.333-3.326c11.042-1.861,18.393-4.975,24.16-8.053
		c7.821-4.174,12.32-8.708,15.306-13.943c11.641-20.411,10.696-26.644,11.018-32.093c0.321-5.449-2.31-21.665-0.423-16.633
		c14.843,39.575-8.485,66.989-44.251,72.125C534.636,471.583,511.872,476.021,501.295,472.816z"/>
	<g>
		<path fill="#D16C59" d="M410.184,614.912c-0.121,0.174-0.239,0.354-0.362,0.525C409.958,615.275,410.079,615.1,410.184,614.912z"
			/>
		<path fill="#B43C25" d="M431.777,580.418c0.641-1.281,16.026-11.537,17.949-12.18c1.923-0.641,12.501-8.973,13.783-10.576
			s13.462-13.783,15.385-15.064c1.923-1.283,9.937-4.168,13.462-5.131c3.526-0.961,44.232-13.461,49.682-15.383
			c5.449-1.924,47.76-16.669,51.285-18.271c3.525-1.602,28.847-13.462,32.373-14.104c3.525-0.641,12.5-7.372,13.462-9.936
			c0.961-2.564,6.73-10.256,9.615-12.5c2.885-2.244,9.938-11.218,10.258-15.064s3.525-18.902,5.128-21.311
			c1.602-2.408,4.167-10.422,6.731-12.345c2.564-1.923,15.705-13.462,18.59-14.423c2.885-0.962,8.014-8.014,9.296-10.898
			c1.281-2.885,7.05-13.784,4.486-23.72s-7.05-29.488-7.691-33.014c-0.642-3.526-7.374-30.13-8.976-33.015s-1.603-7.052-0.962-8.975
			c0.273-0.82,0.839-2.633,1.397-4.441c-2.778-4.599-6.204-9.982-6.204-9.982s-5.449-9.295-9.616-16.347
			c-4.166-7.051-10.577-11.539-14.744-12.821c-2.28-0.702-7.438-2.746-12.167-4.559c0,0,4.233,21.306,6.878,25.393
			c2.645,4.087,12.981,19.712,13.943,24.761c0.961,5.048,4.567,58.897,3.605,67.792c-0.962,8.895-1.923,25.482-7.933,29.809
			c-6.011,4.327-12.981,17.79-15.386,23.559s-12.741,33.655-14.664,36.78c-1.923,3.125-10.337,9.616-14.424,12.5
			s-7.692,12.02-10.337,15.866c-2.645,3.847-29.088,16.106-34.857,18.27s-49.329,16.866-53.849,18.029
			c-13.996,3.604-45.44,12.827-50.729,16.674c-5.289,3.846-57.93,42.705-61.776,50.637c-2.733,5.637,8.613,22.775,5.411,28.484
			c5.539-7.932,9.564-18.256,11.016-20.07l-1.923-3.846C419.276,590.996,431.136,581.701,431.777,580.418z"/>
		<path fill="#652211" d="M708.963,371.486c-1.018-2.762-2.142-4.968-2.494-6.142c-0.962-3.206-7.051-25.962-7.692-29.809
			c-0.642-3.846-0.641-15.064-1.924-19.231c-1.282-4.167-4.808-17.309-7.051-21.476c-0.644-1.194-1.654-2.915-2.771-4.762
			c-0.559,1.808-1.124,3.621-1.397,4.441c-0.641,1.923-0.64,6.09,0.962,8.975s8.334,29.488,8.976,33.015
			c0.642,3.526,5.128,23.078,7.691,33.014s-3.205,20.835-4.486,23.72c-1.282,2.884-6.411,9.936-9.296,10.898
			c-2.885,0.961-16.025,12.5-18.59,14.423c-2.564,1.923-5.13,9.937-6.731,12.345c-1.603,2.409-4.808,17.465-5.128,21.311
			s-7.373,12.821-10.258,15.064c-2.885,2.244-8.654,9.936-9.615,12.5c-0.962,2.564-9.937,9.295-13.462,9.936
			c-3.526,0.641-28.848,12.501-32.373,14.104c-3.525,1.603-45.836,16.348-51.285,18.271c-5.449,1.922-46.156,14.422-49.682,15.383
			c-3.525,0.963-11.539,3.848-13.462,5.131c-1.923,1.281-14.104,13.461-15.385,15.064s-11.86,9.936-13.783,10.576
			c-1.923,0.643-17.308,10.898-17.949,12.18c-0.641,1.283-12.5,10.578-12.5,10.578l1.923,3.846
			c2.565-3.205,34.938-27.244,38.784-30.129s25.001-18.912,28.207-20.834c3.205-1.924,30.771-9.295,36.861-11.219
			c6.09-1.923,44.553-15.064,49.682-16.988c5.128-1.923,47.438-18.911,51.925-20.834c4.488-1.923,8.654-2.564,11.539-4.487
			s9.938-14.103,12.181-17.949c2.243-3.847,9.936-14.745,12.82-17.95c2.885-3.205,4.809-12.5,5.129-14.744
			c0.321-2.244,3.847-12.181,5.77-16.027c1.924-3.846,12.821-11.859,19.553-15.385c4.194-2.198,6.896-5.89,9.655-10.532
			c1.667-2.807,3.356-5.959,5.409-9.341C712.168,382.732,710.727,376.272,708.963,371.486z"/>
	</g>
	<path fill="#B43C25" d="M560.549,276.326c0,0-2.072,4.078-2.885,5.762c-3.081,6.39-8.423,22.311-8.389,24.04
		c0.043,2.184,5.504,13.943,9.35,15.625c3.847,1.683,18.271,8.654,18.271,8.654s36.06-40.627,30.53-45.435
		c-5.529-4.808-13.702-11.058-16.587-7.692c-2.885,3.365-9.83,16.106-11.646,18.991s-7.805,4.259-11.432-0.24
		C562.952,290.067,560.549,276.326,560.549,276.326z"/>
	<path fill="#5C2A0D" d="M550.933,298.435c-0.24,1.683-2.88,13.167,0,16.587c7.692,9.135,25.963,15.385,25.963,15.385
		s7.212-5.77,8.654-6.731c1.442-0.962,12.741-8.174,14.424-12.26c1.189-2.89,9.135-21.349,9.135-21.349s-18.972,1.395-18.27,9.81
		c0.961,11.539-10.59,14.393-16.828,13.222C565.048,311.416,550.933,298.435,550.933,298.435z"/>
	<path fill="#652211" d="M578.639,224.633c0,0-5.028,4.647-5.028,6.09s-1.923,4.809,0,5.609c1.924,0.801,5.45,0.642,7.693,0.962
		c2.243,0.32,9.936-2.404,10.897,0c0.961,2.404,6.57,14.103,14.904,14.744c8.334,0.642,23.078,0,23.078,0l-11.059-8.494
		l-17.655-0.641l-8.308-11.699c0,0-7.211,4.648-9.615,2.244C581.143,231.044,578.639,224.633,578.639,224.633z"/>
	<g>
		<path fill="none" d="M540.565,321.637c-0.397,0.217-0.821,0.449-1.26,0.691C539.785,322.097,540.225,321.861,540.565,321.637z"/>
		<path fill="#E54D28" d="M644.3,246.358c-3.914-1.501-7.536-2.844-8.988-3.134c-3.206-0.641-20.514-6.731-24.359-7.692
			c-3.847-0.961-5.77-4.808-8.654-8.013c-2.885-3.206-1.923-6.09-8.013-7.693s-16.348-3.846-19.553-4.167
			c-3.206-0.32-8.654,0.32-13.142,2.243c-4.486,1.923-10.257,0-14.104,0s-6.411,0.321-7.692,2.564
			c-1.164,2.037-8.916,6.176-12.497,7.404c0.003,0.001,0.005,0.001,0.009,0.002c0.575,0.241,3.78,1.204,7.795,2.429
			c1.541-2.292,3.762-5.465,4.373-5.668c0.961-0.321,8.219-3.526,8.219-3.526s14.859,1.923,19.346,0
			c4.487-1.923,15.774-3.526,21.188,0c5.415,3.526,19.774,17.371,19.774,17.371l36.525,8.998
			C644.383,246.771,644.3,246.358,644.3,246.358z"/>
		<path fill="#B43C25" d="M527.298,227.871c-1.611-0.666-3.138,1.357-3.138,1.357l0,0c0.829-0.543,1.562-0.933,2.172-1.069
			C526.599,228.1,526.934,227.995,527.298,227.871z"/>
		<path fill="#B43C25" d="M575.053,262.616c-1.603-9.456-17.971-23.879-20.926-25.803c-1.9-1.237-11.785-4.302-19.025-6.511
			c-4.015-1.225-7.22-2.188-7.795-2.429c-0.004,0-0.006-0.001-0.009-0.002c-0.364,0.124-0.699,0.229-0.966,0.289
			c-0.61,0.136-1.343,0.526-2.172,1.069l6.499,1.655l0.481,0.642c-0.961,0.641-13.462,6.535-13.462,6.954
			c0,0.418-1.603,3.784-1.923,6.188c-0.32,2.404-1.603,23.398,0,27.084c1.603,3.687,6.411,22.758,6.09,25.322
			c-0.32,2.564,0.802,15.866,3.847,17.309s11.379,5.609,14.744,6.09c1.182,0.168,0.938,0.634,0.13,1.166
			c-0.341,0.224-0.78,0.46-1.26,0.691c-0.976,0.538-2.024,1.124-3.026,1.697l4.316,1.253l12.02-1.282
			c0,0-13.942-20.63-10.577-28.526c2.932-6.878,5.289-19.713,0-23.239c-5.288-3.526-10.577-6.25-6.25-9.295
			c4.327-3.045,10.112-7.453,16.547-7.292c3.459,0.086,10.217-1.361,13.622,5.413C571.588,272.261,576.096,268.762,575.053,262.616z
			"/>
		<path fill="#E54D28" d="M540.436,320.471c-3.365-0.481-11.699-4.648-14.744-6.09s-4.167-14.744-3.847-17.309
			c0.321-2.564-4.487-21.635-6.09-25.322c-1.603-3.686-0.32-24.68,0-27.084c0.32-2.404,1.923-5.77,1.923-6.188
			c0-0.418,12.501-6.313,13.462-6.954l-0.481-0.642l-6.499-1.655c-3.085,2.018-7.587,6.273-12.893,8.547
			c-6.731,2.885-3.205,16.667-3.205,19.552s4.487,16.988,6.731,20.514c2.244,3.526,2.885,15.385,2.885,19.552s0,9.616,0.641,13.783
			c0.641,4.167,7.372,7.372,9.616,10.257s-2.564,7.373-5.449,9.616c-2.885,2.244-22.437,19.553-26.283,23.399
			c-3.847,3.846-11.539,14.744-13.462,17.949s-7.693,22.437-9.616,29.488c-1.923,7.051-29.489,67.311-29.489,67.311
			s-10.898,12.821-13.462,16.667s-25.642,26.283-31.412,33.976c-5.77,7.692-17.949,18.591-19.873,19.231
			c-1.766,0.588-16.501,14.688-18.894,16.984c0.749,0.457,1.533,0.924,2.344,1.396l8.216-7.482c0,0,17.629-14.744,23.078-19.873
			c5.449-5.128,17.309-19.551,19.552-21.796c2.244-2.244,8.333-8.975,13.462-13.462c5.128-4.487,19.873-22.117,21.155-25.001
			s13.783-25.806,15.065-31.494c1.282-5.687,7.051-22.354,8.654-24.598s7.693-18.999,7.693-18.999l1.923-10.169
			c0,0,3.846-8.654,5.449-11.219c1.603-2.564,12.428-15.386,14.708-17.95c2.28-2.564,14.46-15.706,16.383-16.988
			c1.923-1.282,12.821-10.257,14.104-11.539c0.504-0.503,2.393-1.65,4.498-2.856c1.002-0.573,2.051-1.159,3.026-1.697
			c0.438-0.242,0.862-0.475,1.26-0.691C541.374,321.105,541.617,320.64,540.436,320.471z"/>
	</g>
	<path fill="#652211" d="M607.426,276.507c0.076,0.077-5.956-19.18-25.161-19.18c-1.603,0-4.007,1.443-2.083,3.045
		c1.923,1.603,6.892,6.545,6.892,6.545S597.971,266.917,607.426,276.507z"/>
	<path fill="#E54D28" d="M541.793,391.042c2.217,0-11.299,6.731-12.5,9.135c-1.203,2.404-3.125,8.173,0,9.856
		c3.125,1.683,9.121,9.135,5.402,11.298c-3.721,2.164-9.778,9.48-12.182,10.682c-2.404,1.202-9.568,0.376-11.251-6.115
		c-1.683-6.49-2.644-15.385,0-19.231C513.907,402.822,530.734,391.042,541.793,391.042z"/>
	<path fill="#E54D28" d="M471.522,508.619l-71.157,52.887c0,0,6.731-13.143,9.616-15.707c2.885-2.563,27.565-13.461,29.168-17.308
		S449.085,505.094,471.522,508.619z"/>
	<path fill="#B13A25" d="M501.171,444.354c0.395,1.942,4.968,8.654,6.25,6.731c1.282-1.923,0.16-16.862,0-20.451
		c-0.16-3.589,0.641-30.193,37.34-40.77C550.93,388.087,490.113,389.862,501.171,444.354z"/>
	<path fill="#652211" d="M504.857,451.086c1.849,2.618-17.148-49.521,38.945-63.625C528.576,386.66,474.407,407.975,504.857,451.086
		z"/>
	<polygon fill="#652211" points="402.929,565.998 424.084,539.395 443.316,530.419 471.522,513.111 450.047,531.698 
		437.226,539.555 410.184,564.396 	"/>
	<g>
		<g>
			<path fill="#652211" d="M359.996,556.055c-0.212,0.205-0.337,0.324-0.337,0.324c-33.335,7.693-19.552,19.232-16.988,22.758
				s5.449,8.975,7.372,17.309c1.923,8.334,32.373,23.719,45.194,27.564c5.406,1.621,10.409-2.746,14.584-8.572
				c4.324-5.1-7.871-23.188-5.049-29.01c1.057-2.18,5.989-6.834,12.689-12.516c-1.685-0.482-3.527-0.785-5.557-0.863
				C390.397,572.223,371.464,563.053,359.996,556.055z"/>
		</g>
	</g>
	<path fill="#B13A25" d="M482.741,489.204c-0.625,0.73-0.452-5.891,2.243-8.654c3.42-3.506,10.899-16.027,52.247-19.873
		c10.835-1.008,34.296-12.18,39.745-45.835c1.417-8.751,2.563-22.758,2.243-27.245c-0.32-4.487,36.38,81.76-76.606,87.449
		C502.613,475.045,495.723,474.043,482.741,489.204z"/>
</g>
</svg>
